<?xml version="1.0" standalone="no"?>
<!DOCTYPE svg PUBLIC "-//W3C//DTD SVG 20010904//EN"
 "http://www.w3.org/TR/2001/REC-SVG-20010904/DTD/svg10.dtd">
<svg version="1.0" xmlns="http://www.w3.org/2000/svg"
 width="1060.000000pt" height="894.000000pt" viewBox="0 0 1060.000000 894.000000"
 preserveAspectRatio="xMidYMid meet">

<g transform="translate(0.000000,894.000000) scale(0.100000,-0.100000)"
fill="#000000" stroke="none">
<path d="M8288 7490 c-5 -31 6 -40 46 -40 53 0 148 -85 175 -155 11 -28 11
-28 6 13 -10 80 -59 149 -133 186 -18 10 -41 16 -50 14 -9 -1 -22 1 -28 5 -8
4 -13 -4 -16 -23z m66 -5 c-4 -8 -8 -15 -10 -15 -2 0 -4 7 -4 15 0 8 4 15 10
15 5 0 7 -7 4 -15z"/>
<path d="M8179 7476 c-33 -23 -89 -95 -89 -115 0 -5 4 -13 10 -16 6 -3 7 1 4
10 -4 9 -2 15 4 13 5 -2 11 2 13 7 7 21 34 45 52 45 10 0 15 5 11 11 -3 6 6
24 22 40 34 35 21 38 -27 5z"/>
<path d="M8235 7470 c-10 -11 -15 -23 -12 -27 8 -7 47 25 47 39 0 14 -16 9
-35 -12z"/>
<path d="M1890 6617 c-95 -34 -148 -68 -218 -142 -66 -70 -97 -119 -86 -137 4
-6 3 -8 -3 -5 -12 8 -41 -83 -48 -149 -3 -36 -2 -42 4 -24 8 21 9 22 10 5 1
-17 3 -16 15 7 14 27 174 188 187 188 3 0 19 18 34 41 20 28 34 39 47 36 14
-4 18 1 18 19 0 13 9 28 19 34 23 12 34 0 25 -25 -8 -20 11 -35 44 -35 34 0
22 -23 -19 -37 -19 -7 -29 -12 -22 -12 6 -1 9 -10 6 -21 -3 -12 1 -22 11 -26
9 -3 13 -11 10 -16 -4 -6 -10 -5 -15 3 -8 12 -10 12 -18 0 -6 -9 -11 -10 -15
-2 -4 6 -2 11 3 11 6 0 11 6 11 13 -1 6 -9 2 -19 -10 -23 -28 -39 -29 -57 -5
-13 16 -13 16 -14 -2 0 -11 -10 -30 -22 -43 -19 -20 -20 -25 -8 -33 12 -8 9
-15 -19 -39 -30 -25 -32 -31 -21 -52 10 -21 9 -22 -3 -7 -13 16 -19 13 -75
-41 -33 -33 -58 -63 -54 -67 4 -5 -1 -2 -10 5 -56 43 -58 -54 -4 -164 42 -85
116 -168 191 -215 58 -36 176 -75 205 -67 13 3 18 1 13 -6 -4 -7 21 -8 83 -4
146 10 253 56 349 152 161 160 201 404 100 610 -29 59 -69 108 -80 97 -5 -4
-5 -1 -1 5 9 16 -63 85 -81 78 -7 -2 -15 1 -19 7 -5 7 -2 8 6 3 9 -5 11 -4 6
4 -9 13 -102 62 -113 59 -5 -1 -19 4 -33 12 -16 9 -65 15 -140 17 -100 3 -124
0 -180 -20z m227 7 c-3 -3 -12 -4 -19 -1 -8 3 -5 6 6 6 11 1 17 -2 13 -5z m87
-19 c16 -12 17 -15 4 -15 -8 0 -21 7 -28 15 -16 19 -1 19 24 0z m-294 0 c0 -3
-15 -12 -32 -20 -21 -9 -26 -14 -15 -15 10 0 27 5 38 10 27 15 24 5 -6 -14
-22 -15 -28 -15 -52 -2 l-27 14 32 7 c17 3 34 11 37 16 7 10 25 13 25 4z m337
-30 c0 -8 -4 -12 -9 -9 -5 3 -6 10 -3 15 9 13 12 11 12 -6z m48 -3 c-3 -3 -11
0 -18 7 -9 10 -8 11 6 5 10 -3 15 -9 12 -12z m-558 -49 c-4 -3 -1 -13 6 -22
10 -14 10 -14 -4 -4 -9 7 -20 9 -25 5 -4 -4 -2 1 5 11 7 9 16 17 19 17 3 0 2
-3 -1 -7z m643 -13 c0 -5 -2 -10 -4 -10 -3 0 -8 5 -11 10 -3 6 -1 10 4 10 6 0
11 -4 11 -10z m-35 -10 c3 -5 1 -10 -4 -10 -6 0 -11 5 -11 10 0 6 2 10 4 10 3
0 8 -4 11 -10z m-597 -23 c27 -1 -1 -11 -33 -12 -27 0 -32 2 -23 13 6 7 18 10
27 6 9 -3 22 -7 29 -7z m671 0 c8 -10 7 -14 -4 -14 -8 0 -12 4 -9 8 2 4 -4 10
-13 12 -15 4 -15 5 -2 6 9 0 22 -5 28 -12z m-299 -27 c0 -5 -2 -10 -4 -10 -3
0 -8 5 -11 10 -3 6 -1 10 4 10 6 0 11 -4 11 -10z m-55 -10 c4 -6 11 -7 17 -4
6 4 8 2 4 -4 -6 -10 45 -117 66 -137 8 -7 8 -6 3 4 -5 10 -4 12 4 7 6 -4 9
-12 6 -17 -9 -13 27 -69 39 -62 5 4 7 -1 3 -11 -4 -11 -3 -15 4 -11 6 4 9 -1
7 -11 -2 -11 2 -18 8 -17 7 1 10 -6 7 -17 -4 -16 -14 -20 -54 -20 l-49 0 -2
-211 -3 -211 -70 0 -70 0 -3 211 -2 211 -50 0 c-28 0 -50 4 -50 10 0 5 14 32
30 60 17 28 27 56 24 62 -4 7 -2 8 4 4 14 -8 45 50 36 67 -4 7 -3 9 1 4 9 -7
65 73 65 93 0 13 17 13 25 0z m-420 -19 c-3 -5 -1 -12 4 -16 5 -3 14 3 20 12
6 10 11 13 11 7 0 -20 -27 -37 -36 -23 -5 9 -11 7 -21 -6 -7 -11 -13 -15 -13
-10 0 5 7 17 17 27 17 19 28 24 18 9z m818 -16 c-7 -21 -13 -19 -13 6 0 11 4
18 10 14 5 -3 7 -12 3 -20z m-326 -7 c-3 -8 -6 -5 -6 6 -1 11 2 17 5 13 3 -3
4 -12 1 -19z m-144 -23 c-7 -21 -12 -19 -10 4 0 11 5 18 9 15 4 -3 5 -11 1
-19z m503 -21 c2 -14 0 -24 -3 -20 -3 3 -7 17 -9 32 -1 14 0 23 3 20 4 -3 8
-18 9 -32z m-526 16 c0 -5 -5 -10 -11 -10 -5 0 -7 5 -4 10 3 6 8 10 11 10 2 0
4 -4 4 -10z m185 -38 c-5 -5 -45 36 -45 46 0 3 11 -5 25 -18 14 -13 23 -26 20
-28z m-205 -30 c0 -5 -7 -9 -15 -9 -8 0 -12 4 -9 9 3 4 9 8 15 8 5 0 9 -4 9
-8z m254 -29 c9 -16 16 -21 16 -13 0 11 3 11 11 -3 8 -14 8 -22 -1 -30 -8 -9
-9 -7 -4 7 5 14 4 17 -4 12 -7 -4 -15 -1 -18 8 -3 9 -9 14 -13 12 -4 -3 -7 4
-7 15 0 25 3 24 20 -8z m-570 2 c-10 -8 -23 -14 -29 -14 -5 0 -1 6 9 14 11 8
24 15 30 15 5 0 1 -7 -10 -15z m-51 -16 c-8 -8 -13 -7 -18 2 -5 8 -4 10 3 5 7
-4 12 -2 12 5 0 7 3 9 7 6 4 -4 2 -12 -4 -18z m967 1 c0 -5 -2 -10 -4 -10 -3
0 -8 5 -11 10 -3 6 -1 10 4 10 6 0 11 -4 11 -10z m-667 -61 c4 -3 1 -12 -8
-19 -13 -11 -15 -10 -9 4 3 9 1 16 -6 16 -6 0 -8 5 -5 11 4 6 10 7 14 2 3 -4
10 -10 14 -14z m264 -121 c-3 -8 -6 -5 -6 6 -1 11 2 17 5 13 3 -3 4 -12 1 -19z
m-180 -140 c-2 -24 -4 -5 -4 42 0 47 2 66 4 43 2 -24 2 -62 0 -85z m-398 18
c-9 -8 -10 -7 -5 7 3 10 7 26 7 35 1 9 4 6 6 -7 3 -13 -1 -28 -8 -35z m974
-11 c-3 -9 -8 -14 -10 -11 -3 3 -2 9 2 15 9 16 15 13 8 -4z m-956 -17 c-3 -8
-6 -5 -6 6 -1 11 2 17 5 13 3 -3 4 -12 1 -19z m936 -33 c-3 -9 -8 -14 -10 -11
-3 3 -2 9 2 15 9 16 15 13 8 -4z m-910 -25 c3 -11 3 -20 1 -20 -2 0 -8 9 -14
20 -6 11 -7 20 -2 20 6 0 12 -9 15 -20z m885 -20 c-7 -10 -14 -18 -15 -16 -6
6 9 36 18 36 5 0 4 -9 -3 -20z m-840 -35 c-2 -44 -8 -39 -13 9 -1 20 1 34 6
31 4 -3 8 -21 7 -40z m494 -47 c2 -21 0 -38 -4 -38 -4 0 -8 21 -7 48 1 52 6
48 11 -10z m312 44 c12 6 8 -2 -11 -19 -18 -16 -30 -33 -25 -38 4 -4 1 -5 -5
-1 -8 5 -13 1 -14 -11 0 -11 -3 -13 -6 -5 -3 7 0 19 7 26 8 10 8 16 0 21 -8 5
-8 11 1 21 8 10 16 11 22 5 7 -7 17 -6 31 1z m-694 -95 c13 4 13 3 0 -6 -12
-9 -13 -11 -1 -11 8 0 12 -3 9 -6 -9 -9 -45 13 -52 33 -6 15 -5 16 11 1 10 -8
25 -13 33 -11z m620 1 c0 -6 -6 -5 -15 2 -8 7 -15 14 -15 16 0 2 7 1 15 -2 8
-4 15 -11 15 -16z m-424 -4 c23 -11 50 -15 84 -12 27 3 47 1 44 -4 -8 -13
-118 -10 -133 5 -11 10 -14 10 -18 0 -7 -20 -19 -15 -19 7 0 24 -1 24 42 4z
m-129 -13 c-1 -12 -7 -17 -19 -13 -10 2 -20 8 -23 12 -3 5 4 6 15 3 11 -3 20
0 20 6 0 6 2 11 4 11 3 0 4 -8 3 -19z m309 4 c-8 -8 -18 -15 -22 -15 -3 0 -1
7 6 15 7 8 17 15 22 15 5 0 3 -7 -6 -15z m-311 -37 c5 4 5 1 1 -6 -6 -10 -11
-10 -22 -1 -8 6 -14 14 -14 16 0 3 6 0 13 -6 8 -6 18 -7 22 -3z m165 8 c0 -11
-19 -15 -25 -6 -3 5 1 10 9 10 9 0 16 -2 16 -4z m113 -3 c-7 -2 -19 -2 -25 0
-7 3 -2 5 12 5 14 0 19 -2 13 -5z m-18 -31 c-3 -3 -11 0 -18 7 -9 10 -8 11 6
5 10 -3 15 -9 12 -12z m-205 -2 c0 -5 -5 -10 -11 -10 -5 0 -7 5 -4 10 3 6 8
10 11 10 2 0 4 -4 4 -10z m167 -6 c-3 -3 -12 -4 -19 -1 -8 3 -5 6 6 6 11 1 17
-2 13 -5z m-94 -11 c-7 -2 -19 -2 -25 0 -7 3 -2 5 12 5 14 0 19 -2 13 -5z
m210 -10 c-7 -2 -21 -2 -30 0 -10 3 -4 5 12 5 17 0 24 -2 18 -5z m-110 -10
c-7 -2 -19 -2 -25 0 -7 3 -2 5 12 5 14 0 19 -2 13 -5z m44 1 c-3 -3 -12 -4
-19 -1 -8 3 -5 6 6 6 11 1 17 -2 13 -5z"/>
<path d="M2416 5801 c-4 -5 -2 -12 3 -15 5 -4 12 -2 15 3 4 5 2 12 -3 15 -5 4
-12 2 -15 -3z"/>
<path d="M1739 6303 c-13 -16 -12 -17 4 -4 9 7 17 15 17 17 0 8 -8 3 -21 -13z"/>
<path d="M1590 6110 c0 -5 5 -10 10 -10 6 0 10 5 10 10 0 6 -4 10 -10 10 -5 0
-10 -4 -10 -10z"/>
<path d="M1530 6099 c0 -5 5 -7 10 -4 6 3 10 8 10 11 0 2 -4 4 -10 4 -5 0 -10
-5 -10 -11z"/>
<path d="M2010 4405 c0 -608 2 -1105 5 -1105 2 0 23 7 45 16 l40 16 0 1089 0
1089 -45 0 -45 0 0 -1105z"/>
<path d="M8340 5104 c0 -147 3 -223 10 -219 6 3 10 1 10 -4 0 -6 -5 -11 -10
-11 -6 0 -3 -11 6 -25 15 -23 15 -25 0 -25 -15 0 -16 -51 -16 -556 l0 -556 31
6 c17 3 51 6 75 6 l44 0 0 638 c0 626 0 638 -20 652 -11 8 -20 20 -20 27 0 7
9 18 20 25 18 12 20 24 20 140 l0 128 -75 0 -75 0 0 -226z m118 -121 c2 -13 8
-23 13 -23 5 0 9 -7 9 -15 0 -11 -11 -15 -36 -15 -33 0 -36 -2 -30 -24 9 -36
-8 -40 -38 -9 -33 33 -33 40 6 80 37 38 71 41 76 6z"/>
<path d="M8397 4962 c-10 -10 -14 -22 -10 -25 7 -8 43 21 43 35 0 14 -16 9
-33 -10z"/>
<path d="M8481 5044 c0 -11 3 -14 6 -6 3 7 2 16 -1 19 -3 4 -6 -2 -5 -13z"/>
<path d="M5021 4425 c-1 -12 4 -26 10 -32 8 -8 7 -13 -2 -18 -8 -5 -10 -4 -5
3 10 17 -3 15 -21 -4 -15 -14 -10 -21 51 -80 69 -66 130 -104 165 -104 29 0
68 38 99 95 30 55 35 57 140 42 43 -6 52 -5 52 8 0 9 -9 15 -25 15 -14 0 -25
4 -25 8 0 5 -12 7 -27 5 -16 -3 -39 0 -53 6 -20 8 -17 9 20 4 31 -4 42 -2 35
5 -5 6 -26 12 -45 14 -19 2 -38 7 -42 13 -4 5 -10 6 -14 2 -4 -4 -2 -13 4 -19
15 -15 15 -29 0 -25 -7 1 -13 -2 -13 -8 -2 -19 -40 -79 -67 -107 -24 -26 -88
-42 -73 -18 3 5 11 7 18 4 18 -6 60 35 53 53 -3 8 0 21 8 29 19 19 27 18 20
-3 -5 -14 -4 -15 4 -4 13 19 3 46 -11 32 -16 -16 -30 -13 -24 3 5 11 0 11 -23
-2 -33 -19 -37 -51 -5 -45 16 4 17 3 5 -6 -24 -17 -40 -13 -41 12 l0 22 -9
-22 c-11 -26 -14 -27 -40 -13 -15 8 -21 6 -29 -7 -9 -16 -15 -13 -55 27 -25
24 -46 47 -46 50 0 10 34 8 48 -3 23 -19 23 0 -1 29 -13 16 -27 36 -30 44 -4
11 -6 9 -6 -5z m229 -105 c0 -5 -9 -10 -21 -10 -11 0 -17 5 -14 10 3 6 13 10
21 10 8 0 14 -4 14 -10z m-115 -50 c-8 -13 1 -13 26 1 15 7 24 7 35 -2 11 -9
18 -8 31 2 15 13 15 12 3 -8 -8 -12 -18 -20 -22 -17 -4 3 -16 0 -26 -5 -13 -7
-26 -5 -45 8 -15 10 -24 21 -20 24 10 11 25 8 18 -3z"/>
<path d="M5170 4260 c-9 -6 -10 -10 -3 -10 6 0 15 5 18 10 8 12 4 12 -15 0z"/>
<path d="M5290 4400 c0 -5 5 -10 10 -10 6 0 10 5 10 10 0 6 -4 10 -10 10 -5 0
-10 -4 -10 -10z"/>
<path d="M5486 4392 c-4 -6 -14 -9 -24 -6 -15 5 -15 5 1 -6 9 -6 22 -8 27 -5
6 3 10 1 10 -6 0 -7 3 -10 6 -6 3 3 2 13 -4 23 -6 11 -12 13 -16 6z"/>
<path d="M5301 4376 c-8 -10 -9 -16 -1 -21 6 -3 7 -11 4 -17 -4 -7 -2 -8 5 -4
9 6 9 11 0 22 -9 11 -8 14 5 14 9 0 16 5 16 10 0 14 -16 12 -29 -4z"/>
<path d="M5040 4351 c0 -6 4 -13 10 -16 6 -3 7 1 4 9 -7 18 -14 21 -14 7z"/>
<path d="M4959 4270 c-19 -22 -34 -42 -32 -44 3 -2 -2 -4 -9 -3 -34 1 -49 -4
-42 -15 5 -7 3 -8 -5 -4 -32 20 -431 -172 -423 -204 1 -6 -2 -9 -8 -5 -6 4
-31 -8 -55 -27 -46 -34 -57 -51 -27 -42 9 4 2 -3 -16 -15 -19 -13 -30 -26 -26
-33 4 -6 3 -8 -3 -5 -6 4 -16 0 -23 -8 -11 -14 -7 -19 13 -16 12 2 8 -6 -10
-20 -10 -8 -14 -9 -10 -2 4 6 2 15 -4 18 -7 5 1 20 23 43 32 34 31 34 -19 -7
-29 -23 -55 -51 -58 -61 -4 -11 -10 -20 -14 -20 -18 0 -65 -76 -66 -105 0 -20
-5 -30 -15 -30 -16 0 -33 -26 -44 -68 -4 -19 -2 -27 6 -27 10 0 10 -2 0 -9
-19 -12 -27 -131 -12 -176 10 -30 14 -34 26 -24 12 10 13 8 5 -14 -19 -48 71
-154 150 -178 19 -5 186 -9 377 -10 l343 0 -102 -107 c-56 -59 -127 -141 -157
-182 -31 -41 -57 -77 -58 -79 -2 -2 -25 10 -51 27 -26 16 -127 74 -223 129
-605 345 -681 391 -805 488 -44 34 -102 85 -128 114 -50 54 -97 70 -97 33 0
-41 53 -124 104 -161 96 -72 292 -183 594 -338 114 -58 213 -110 221 -117 8
-6 47 -55 88 -108 l74 -98 82 0 c45 0 89 -4 97 -10 16 -10 -9 -52 -143 -228
-43 -57 -75 -107 -72 -113 12 -19 86 -50 106 -44 15 5 22 0 30 -23 11 -33 45
-51 150 -81 44 -13 71 -16 82 -9 29 16 19 52 -24 93 -23 22 -50 60 -61 84
l-20 43 28 29 c15 16 35 29 45 29 9 0 43 33 74 73 32 39 63 77 69 83 39 37
119 125 107 119 -9 -5 -12 -4 -7 3 4 6 13 9 20 6 17 -6 29 23 14 32 -7 4 -8 3
-4 -4 4 -7 5 -12 2 -12 -3 0 -10 10 -17 21 -9 17 -8 23 2 30 21 13 33 11 20
-5 -9 -11 -8 -15 5 -20 22 -9 26 -8 18 6 -4 7 -3 8 5 4 13 -9 39 11 179 143
76 71 111 111 132 155 49 97 37 170 -38 221 l-37 25 30 -5 c17 -2 57 -9 89
-15 89 -15 86 -16 86 40 0 41 -5 55 -32 87 -25 28 -28 35 -13 29 50 -20 75
-25 69 -13 -3 7 0 5 8 -4 14 -17 221 -98 253 -100 12 0 7 -5 -13 -10 -38 -11
-50 -32 -32 -54 13 -16 21 -16 188 1 54 6 60 18 16 34 -20 8 -22 13 -15 33 5
13 11 52 13 87 l3 64 -40 23 c-50 29 -51 28 -59 -3 -7 -25 -7 -25 -32 -9 -14
9 -28 14 -32 11 -3 -3 0 -6 6 -6 7 0 12 -9 12 -20 0 -15 -7 -20 -25 -20 -15 0
-25 6 -25 14 0 8 -10 22 -21 30 -13 9 -19 21 -16 30 5 11 -13 27 -64 56 -38
23 -74 38 -81 34 -7 -4 -8 -3 -4 4 4 7 -4 17 -21 24 -15 7 -40 25 -57 40 -16
15 -33 25 -38 22 -5 -3 -7 0 -6 7 2 8 -7 14 -20 15 -13 1 -31 9 -40 19 -16 17
-16 17 13 0 18 -11 3 9 -40 51 -38 37 -63 64 -55 59 13 -8 13 -6 1 8 -7 9 -18
14 -25 10 -6 -3 -8 -3 -4 2 9 10 -10 47 -21 40 -5 -2 -8 3 -7 13 0 9 -5 16
-12 14 -8 -1 -11 1 -8 6 3 5 -2 18 -10 28 -9 10 -12 13 -8 5 5 -9 3 -12 -4 -7
-7 4 -12 13 -12 21 0 21 -67 68 -89 62 -16 -4 -18 1 -15 38 4 39 0 46 -31 74
-20 17 -39 31 -43 31 -4 0 -23 -18 -43 -40z m-102 -86 c-3 -3 -12 -4 -19 -1
-8 3 -5 6 6 6 11 1 17 -2 13 -5z m-45 -11 c-6 -2 -9 -10 -6 -15 4 -7 2 -8 -5
-4 -13 9 -5 26 12 25 9 0 8 -2 -1 -6z m253 -23 c3 -6 -1 -7 -9 -4 -18 7 -21
14 -7 14 6 0 13 -4 16 -10z m-339 -9 c-6 -9 -46 -22 -46 -15 0 3 10 9 23 14
29 11 29 11 23 1z m423 -22 c-15 -9 -32 -2 -24 11 3 5 13 6 21 3 12 -4 13 -8
3 -14z m18 -16 c-4 -3 -2 -12 4 -20 7 -8 8 -13 1 -13 -12 0 -23 26 -15 34 4 3
9 6 11 6 3 0 2 -3 -1 -7z m-557 -23 c8 -5 11 -10 5 -10 -5 0 -17 5 -25 10 -8
5 -10 10 -5 10 6 0 17 -5 25 -10z m-48 -17 c-6 -2 -10 -9 -7 -14 4 -5 -2 -6
-12 -2 -16 6 -16 5 -4 -10 8 -10 9 -17 3 -17 -6 0 -14 5 -18 12 -7 11 22 39
40 37 6 0 5 -3 -2 -6z m661 -68 c-3 -9 -8 -14 -10 -11 -3 3 -2 9 2 15 9 16 15
13 8 -4z m-826 -40 c0 -8 -4 -12 -9 -9 -5 3 -6 10 -3 15 9 13 12 11 12 -6z
m913 -19 c0 -2 -8 -10 -17 -17 -16 -13 -17 -12 -4 4 13 16 21 21 21 13z m-288
-60 c-4 -15 -7 -17 -10 -6 -3 8 -10 18 -16 22 -6 4 -1 6 10 6 16 -2 20 -7 16
-22z m-757 -47 c-4 -5 -12 -9 -18 -8 -9 0 -8 2 1 6 6 2 9 10 6 15 -4 7 -2 8 5
4 6 -4 9 -12 6 -17z m295 -34 c0 -16 6 -25 16 -25 8 0 24 -5 35 -11 17 -8 18
-13 8 -25 -8 -10 -21 -13 -36 -9 -24 6 -33 -10 -10 -18 8 -3 2 -15 -18 -35
-35 -36 -42 -38 -67 -15 -17 15 -18 15 -18 -1 0 -10 5 -27 11 -38 7 -12 7 -18
1 -14 -6 3 -12 0 -15 -6 -2 -7 -8 -9 -13 -5 -5 4 -2 12 6 17 8 5 11 12 7 16
-11 12 -37 -29 -32 -50 6 -29 -13 -50 -32 -34 -8 6 -13 7 -12 2 3 -18 -1 -25
-12 -18 -6 3 -30 7 -53 9 -34 2 -45 -2 -55 -17 -16 -26 -6 -36 20 -20 18 11
18 11 7 -7 -16 -25 -4 -38 18 -20 16 13 16 12 5 -8 -15 -28 -14 -28 -48 3 -24
22 -26 28 -14 46 7 11 10 22 8 24 -6 6 52 64 64 64 5 0 9 6 9 13 1 6 17 26 36
42 19 17 54 49 79 73 24 23 48 42 54 42 6 0 11 6 11 13 0 14 20 37 32 37 4 0
8 -11 8 -25z m465 7 c-3 -3 -11 0 -18 7 -9 10 -8 11 6 5 10 -3 15 -9 12 -12z
m48 4 c-4 -5 1 -7 10 -3 9 3 19 2 22 -3 9 -15 -28 -12 -49 3 -16 12 -16 13 3
13 11 0 17 -5 14 -10z m-857 -28 c5 -7 3 -8 -5 -4 -8 5 -11 2 -9 -9 2 -11 -4
-19 -14 -20 -16 -3 -16 -1 -1 21 18 27 19 28 29 12z m1171 -14 c-3 -3 -12 -4
-19 -1 -8 3 -5 6 6 6 11 1 17 -2 13 -5z m83 -8 c-7 -7 -13 -7 -20 0 -6 6 -3
10 10 10 13 0 16 -4 10 -10z m-314 -20 c14 4 16 4 5 -4 -11 -8 1 -21 54 -60
38 -28 88 -60 112 -72 24 -12 43 -23 43 -25 0 -2 -22 3 -50 10 -27 7 -135 16
-239 20 l-190 8 36 24 c63 43 102 77 97 85 -3 4 -15 3 -27 -3 -21 -10 -21 -10
-3 5 13 10 23 13 29 7 6 -6 23 -2 45 9 32 18 38 18 53 5 9 -9 24 -13 35 -9z
m379 5 c3 -5 2 -12 -3 -15 -5 -3 -9 1 -9 9 0 17 3 19 12 6z m-344 -14 c-6 -8
-7 -18 -3 -22 4 -5 1 -5 -6 -1 -10 6 -10 11 -1 22 6 8 14 14 16 14 3 0 0 -6
-6 -13z m49 3 c-8 -5 -19 -10 -25 -10 -5 0 -3 5 5 10 8 5 20 10 25 10 6 0 3
-5 -5 -10z m337 -34 c0 -8 -6 -12 -15 -9 -11 5 -11 7 0 14 7 5 13 9 14 9 0 0
1 -6 1 -14z m61 -15 c11 -7 10 -9 -3 -14 -9 -4 -14 -3 -10 2 3 5 -1 12 -7 14
-7 3 -8 6 -3 6 6 0 16 -3 23 -8z m-780 -84 c-17 -16 -65 -47 -74 -47 -4 0 10
14 31 30 37 29 69 42 43 17z m852 -1 c0 -2 -7 -7 -16 -10 -8 -3 -12 -2 -9 4 6
10 25 14 25 6z m-1537 -33 c-13 -2 -33 -2 -45 0 -13 2 -3 4 22 4 25 0 35 -2
23 -4z m1380 -10 c-7 -2 -21 -2 -30 0 -10 3 -4 5 12 5 17 0 24 -2 18 -5z
m-808 -21 c-3 -3 -11 0 -18 7 -9 10 -8 11 6 5 10 -3 15 -9 12 -12z m-192 1
c-7 -2 -21 -2 -30 0 -10 3 -4 5 12 5 17 0 24 -2 18 -5z m100 -10 c-7 -2 -19
-2 -25 0 -7 3 -2 5 12 5 14 0 19 -2 13 -5z m52 -3 c-3 -5 -11 -10 -16 -10 -6
0 -7 5 -4 10 3 6 11 10 16 10 6 0 7 -4 4 -10z m-340 -10 c3 -5 2 -10 -4 -10
-5 0 -13 5 -16 10 -3 6 -2 10 4 10 5 0 13 -4 16 -10z m1370 -38 c-3 -3 -11 0
-18 7 -9 10 -8 11 6 5 10 -3 15 -9 12 -12z m135 10 c0 -5 -7 -17 -15 -28 -14
-18 -14 -17 -4 9 12 27 19 34 19 19z m-1632 -45 c2 -19 7 -24 19 -20 11 4 14
3 9 -6 -4 -7 -13 -10 -19 -8 -7 2 -21 0 -32 -6 -19 -10 -19 -9 -2 10 9 11 17
25 17 31 0 19 -25 14 -45 -8 -10 -11 -22 -20 -27 -20 -4 0 6 13 24 30 38 34
52 34 56 -3z m1517 13 c3 -6 -1 -7 -9 -4 -18 7 -21 14 -7 14 6 0 13 -4 16 -10z
m-1568 -76 c36 -36 22 -40 -17 -4 -18 16 -27 30 -21 30 7 0 23 -12 38 -26z
m-37 -86 c0 -14 -19 1 -31 25 -12 22 -12 22 10 3 11 -11 21 -23 21 -28z m1097
-202 c18 0 30 -4 27 -8 -3 -4 -18 -8 -35 -8 -29 0 -39 -13 -19 -25 12 -7 4
-25 -11 -25 -6 0 -7 5 -4 10 3 6 1 10 -5 10 -6 0 -20 9 -32 20 -18 16 -19 20
-6 20 9 0 18 -5 20 -12 9 -25 27 4 23 35 -4 27 -3 28 3 7 6 -20 14 -25 39 -24z
m-89 -48 c15 -15 15 -28 0 -28 -6 0 -8 3 -4 7 3 4 -4 13 -16 20 -15 8 -18 12
-7 13 8 0 20 -5 27 -12z m-32 -42 c-1 -7 -14 -28 -29 -45 -27 -32 -36 -58 -17
-46 6 4 7 -1 3 -11 -6 -16 -8 -15 -16 4 -8 18 -5 28 16 50 34 35 35 56 5 47
-22 -6 -22 -5 -5 9 21 16 46 12 43 -8z m-63 -23 c-7 -2 -13 -19 -13 -36 0 -29
-1 -30 -14 -11 -13 17 -12 21 1 37 9 9 21 17 27 16 6 0 6 -3 -1 -6z m-73 -73
c-6 -11 -16 -20 -22 -20 -6 0 -3 9 7 20 10 11 20 20 22 20 2 0 -1 -9 -7 -20z
m-54 -77 c7 -10 14 -13 14 -7 0 7 8 15 17 18 15 6 15 5 -1 -13 -17 -18 -17
-19 1 -23 12 -2 14 -6 6 -11 -10 -6 -63 34 -63 48 0 11 14 4 26 -12z m-27 -49
c2 -10 8 -22 15 -26 11 -7 9 -8 -21 -8 -4 0 -7 10 -7 23 0 12 -5 26 -10 30 -7
5 -5 7 4 4 8 -2 17 -12 19 -23z m-39 13 c0 -2 -9 -14 -20 -27 -23 -27 -25 -40
-6 -40 16 0 29 -27 16 -35 -9 -6 -40 32 -40 49 0 5 10 20 22 33 20 22 28 27
28 20z m-90 -98 c-16 -29 -4 -36 22 -13 18 15 20 16 9 2 -11 -15 -11 -21 -1
-33 23 -27 3 -27 -29 1 -30 25 -31 27 -15 45 22 25 27 24 14 -2z"/>
<path d="M4125 3691 c-3 -5 -1 -12 5 -16 5 -3 10 1 10 9 0 18 -6 21 -15 7z"/>
<path d="M3256 3488 c-25 -35 -42 -126 -27 -141 14 -14 34 7 57 60 31 72 8
135 -30 81z"/>
<path d="M6061 3423 c7 -12 15 -20 18 -17 3 2 -3 12 -13 22 -17 16 -18 16 -5
-5z"/>
<path d="M5360 2954 c-223 -139 -409 -255 -415 -257 -5 -2 -7 -7 -4 -11 6 -6
799 482 829 510 38 36 -35 -6 -410 -242z"/>
<path d="M3710 2981 c16 -25 31 -57 35 -71 l6 -26 -93 4 c-168 7 -319 -50
-437 -168 -114 -112 -171 -251 -172 -410 0 -176 49 -298 166 -416 267 -267
702 -222 909 96 20 30 36 59 36 65 0 5 -33 19 -73 31 -39 11 -79 24 -88 28
-11 5 -28 -9 -61 -51 -54 -70 -129 -117 -222 -140 -130 -32 -270 11 -365 112
-71 75 -102 146 -108 248 -8 132 34 234 131 320 190 168 510 99 612 -133 12
-27 23 -39 32 -35 8 3 25 8 38 11 13 3 24 10 24 14 0 15 -135 133 -205 178
-38 25 -112 63 -165 84 -52 20 -91 38 -85 38 5 0 4 5 -3 12 -19 19 -14 27 15
25 20 -2 32 6 48 29 18 27 24 29 45 21 116 -45 234 -130 361 -261 l91 -94 44
15 43 15 -24 54 c-78 176 -239 329 -435 414 -30 13 -71 26 -91 30 l-37 7 28
-46z"/>
<path d="M7503 2918 c-9 -13 -43 -128 -43 -148 0 -5 24 -10 55 -10 30 0 55 1
55 3 0 1 -9 35 -20 76 -20 81 -31 99 -47 79z"/>
<path d="M6116 2883 c-37 -4 -38 -6 -32 -35 18 -89 251 -561 280 -566 17 -4
18 1 11 54 -4 32 -9 67 -12 79 -10 39 -32 190 -32 224 l-1 34 43 -5 c114 -13
232 -102 284 -213 24 -51 28 -73 28 -150 0 -77 -4 -98 -27 -147 -35 -76 -104
-148 -175 -184 -53 -26 -67 -29 -158 -29 -93 0 -105 2 -167 33 -218 107 -270
390 -106 577 l36 41 -45 77 -45 77 -37 -30 c-140 -113 -215 -331 -177 -520 8
-41 21 -90 29 -109 14 -33 14 -34 87 -35 l73 -1 18 -65 c10 -36 18 -71 19 -77
0 -10 -27 -13 -105 -13 l-104 0 -21 -66 c-11 -36 -20 -70 -20 -75 0 -5 65 -9
145 -9 80 0 145 3 145 8 0 4 -4 22 -10 40 -7 26 -6 32 3 28 89 -39 147 -58
209 -68 264 -40 540 149 603 414 53 226 -37 461 -225 587 -128 85 -362 142
-514 124z"/>
<path d="M5582 2835 c-16 -13 -33 -21 -37 -17 -5 4 -5 2 -1 -5 3 -6 -7 -32
-24 -56 -33 -50 -87 -161 -92 -191 -6 -40 20 -25 37 21 27 75 67 143 78 136 6
-3 7 -1 4 4 -8 12 47 91 68 100 16 6 21 33 6 33 -5 0 -23 -11 -39 -25z"/>
<path d="M5648 2783 c-19 -27 -44 -65 -57 -85 -27 -45 -73 -177 -65 -189 12
-20 23 -6 39 48 28 95 104 231 124 219 4 -3 8 0 8 7 0 7 4 20 8 30 15 37 -24
16 -57 -30z"/>
<path d="M5770 2783 c-67 -76 -137 -207 -155 -290 -5 -25 -3 -33 7 -33 9 0 22
24 32 58 26 82 69 163 121 226 25 31 45 60 45 66 0 19 -18 10 -50 -27z"/>
<path d="M3748 2578 c-3 -24 -15 -67 -28 -95 -19 -45 -27 -53 -49 -53 -23 0
-22 -2 14 -19 22 -10 43 -16 47 -12 4 3 18 29 32 58 33 64 45 141 25 154 -27
17 -36 9 -41 -33z"/>
<path d="M7406 2565 c-9 -28 -16 -57 -16 -63 0 -9 37 -12 125 -12 69 0 125 3
125 7 0 4 -7 33 -16 65 l-17 58 -92 -1 -92 -2 -17 -52z"/>
<path d="M3450 2591 c-25 -10 -18 -26 29 -72 24 -24 52 -57 62 -73 18 -30 18
-31 -4 -56 l-22 -25 30 26 c17 14 38 29 48 32 22 8 13 29 -40 94 -42 53 -83
82 -103 74z"/>
<path d="M6460 2577 c0 -41 -31 -129 -53 -151 l-22 -21 21 -21 21 -20 19 30
c55 91 70 177 34 196 -17 9 -20 8 -20 -13z"/>
<path d="M5110 2520 c0 -5 5 -10 10 -10 6 0 10 5 10 10 0 6 -4 10 -10 10 -5 0
-10 -4 -10 -10z"/>
<path d="M5330 2439 c0 -5 5 -7 10 -4 6 3 10 8 10 11 0 2 -4 4 -10 4 -5 0 -10
-5 -10 -11z"/>
<path d="M5420 2400 c0 -5 5 -10 10 -10 6 0 10 5 10 10 0 6 -4 10 -10 10 -5 0
-10 -4 -10 -10z"/>
<path d="M6018 2379 c-10 -5 -18 -18 -18 -27 0 -15 9 -17 68 -14 37 2 84 0
104 -6 33 -9 37 -8 42 11 7 26 6 27 -41 38 -51 12 -134 11 -155 -2z"/>
<path d="M5525 2360 c3 -5 8 -10 11 -10 2 0 4 5 4 10 0 6 -5 10 -11 10 -5 0
-7 -4 -4 -10z"/>
<path d="M3451 2349 c-35 -4 -84 -18 -110 -31 -39 -19 -46 -28 -49 -55 l-3
-32 66 34 c85 45 137 47 151 8 8 -22 9 -18 9 30 0 31 0 56 0 56 0 -1 -29 -5
-64 -10z"/>
<path d="M7322 2257 c-12 -50 -22 -95 -22 -99 0 -11 430 -10 430 0 0 5 -6 31
-14 58 -8 27 -20 68 -26 92 l-11 42 -167 0 -167 0 -23 -93z"/>
<path d="M8813 2328 c-6 -7 -17 -43 -26 -79 -9 -36 -19 -73 -23 -82 -5 -15 3
-17 60 -17 36 0 66 1 66 3 0 3 -38 141 -46 170 -6 20 -18 22 -31 5z"/>
<path d="M5640 2319 c0 -5 5 -7 10 -4 6 3 10 8 10 11 0 2 -4 4 -10 4 -5 0 -10
-5 -10 -11z"/>
<path d="M6202 2290 c0 -14 2 -19 5 -12 2 6 2 18 0 25 -3 6 -5 1 -5 -13z"/>
<path d="M4820 2262 c-54 -36 -57 -37 -164 -40 l-108 -4 -55 -56 c-30 -32 -66
-69 -80 -84 l-26 -26 64 -6 c57 -5 220 -16 494 -31 50 -3 124 -8 165 -10 273
-16 310 -17 310 -6 0 7 9 22 21 34 l20 22 -6 -27 c-5 -18 -3 -28 4 -28 6 0 11
5 11 10 0 6 5 10 11 10 6 0 9 -6 6 -14 -5 -11 8 -16 56 -21 34 -4 82 -5 107
-3 38 3 45 6 48 26 3 20 0 23 -17 17 -12 -4 -44 2 -76 14 -69 26 -68 26 -63
-4 8 -39 -11 -41 -43 -4 -20 23 -25 35 -16 41 7 4 3 10 -13 16 -125 46 -591
212 -594 212 -1 0 -26 -17 -56 -38z"/>
<path d="M6430 2273 c0 -12 -5 -25 -12 -29 -35 -22 133 -33 191 -13 23 8 31
17 31 35 0 27 -3 28 -32 13 -30 -16 -159 -14 -169 3 -6 9 -9 7 -9 -9z"/>
<path d="M6189 2226 c-42 -51 -69 -93 -81 -126 -9 -26 -8 -33 8 -45 27 -20 31
-19 37 13 8 40 79 143 94 137 40 -16 45 -15 16 3 -17 11 -35 27 -40 35 -6 10
-14 7 -34 -17z"/>
<path d="M3502 2186 c-23 -53 -42 -137 -38 -165 2 -9 14 -21 27 -28 24 -12 24
-12 31 51 3 35 15 84 25 107 l20 44 -22 21 -22 22 -21 -52z"/>
<path d="M3705 2210 c-10 -11 -24 -20 -32 -20 -34 0 59 -100 124 -134 42 -21
56 -20 78 4 17 19 17 20 -1 26 -88 30 -182 107 -153 125 8 4 11 10 8 14 -3 3
-14 -4 -24 -15z"/>
<path d="M6333 2193 c-26 -3 -31 -7 -24 -21 43 -88 60 -117 87 -143 28 -27 33
-29 58 -18 l26 12 -35 30 c-38 31 -90 121 -80 137 4 6 5 9 3 8 -2 0 -17 -3
-35 -5z"/>
<path d="M7250 2105 c11 -13 50 -15 268 -13 193 2 256 6 260 16 3 9 -55 12
-268 12 -242 0 -271 -2 -260 -15z"/>
<path d="M5508 2063 c7 -3 16 -2 19 1 4 3 -2 6 -13 5 -11 0 -14 -3 -6 -6z"/>
<path d="M8813 1992 l-93 -3 -16 -57 c-9 -31 -19 -63 -21 -69 -4 -10 28 -13
140 -13 l145 0 -17 66 c-9 36 -23 69 -31 72 -8 4 -57 6 -107 4z"/>
<path d="M8620 1618 c-12 -40 -26 -86 -31 -102 -5 -16 -9 -33 -9 -37 0 -11
477 -12 484 -1 6 10 -18 107 -41 170 l-16 42 -183 0 -182 0 -22 -72z"/>
<path d="M5728 1588 c-14 -11 -28 -54 -58 -175 l-8 -33 239 0 239 0 0 25 c0
37 -41 179 -54 187 -20 14 -340 9 -358 -4z"/>
<path d="M8525 1430 c-12 -19 48 -30 169 -30 84 0 126 4 135 13 11 10 14 10
18 0 6 -16 218 -18 258 -3 63 24 7 30 -280 30 -185 0 -296 -4 -300 -10z"/>
<path d="M5610 1325 c10 -13 51 -15 252 -15 213 0 239 2 228 15 -10 13 -51 15
-252 15 -213 0 -239 -2 -228 -15z"/>
<path d="M6147 1333 c-15 -14 -6 -24 20 -21 34 4 43 28 11 28 -14 0 -28 -3
-31 -7z"/>
</g>
</svg>
